<?xml version="1.0" encoding="UTF-8" standalone="no"?>
<!-- Created with Inkscape (http://www.inkscape.org/) -->

<svg
   xmlns:dc="http://purl.org/dc/elements/1.1/"
   xmlns:cc="http://creativecommons.org/ns#"
   xmlns:rdf="http://www.w3.org/1999/02/22-rdf-syntax-ns#"
   xmlns:svg="http://www.w3.org/2000/svg"
   xmlns="http://www.w3.org/2000/svg"
   xmlns:sodipodi="http://sodipodi.sourceforge.net/DTD/sodipodi-0.dtd"
   xmlns:inkscape="http://www.inkscape.org/namespaces/inkscape"
   width="400"
   height="138"
   viewBox="0 0 105.83333 36.512498"
   version="1.1"
   id="svg8"
   inkscape:version="0.92.2 2405546, 2018-03-11"
   sodipodi:docname="logo.svg">
  <defs
     id="defs2" />
  <sodipodi:namedview
     id="base"
     pagecolor="#ffffff"
     bordercolor="#666666"
     borderopacity="1.0"
     inkscape:pageopacity="0.0"
     inkscape:pageshadow="2"
     inkscape:zoom="1"
     inkscape:cx="311.53479"
     inkscape:cy="90.707003"
     inkscape:document-units="mm"
     inkscape:current-layer="layer1"
     showgrid="false"
     units="px"
     showguides="false"
     inkscape:window-width="1916"
     inkscape:window-height="1160"
     inkscape:window-x="1920"
     inkscape:window-y="38"
     inkscape:window-maximized="0" />
  <metadata
     id="metadata5">
    <rdf:RDF>
      <cc:Work
         rdf:about="">
        <dc:format>image/svg+xml</dc:format>
        <dc:type
           rdf:resource="http://purl.org/dc/dcmitype/StillImage" />
        <dc:title></dc:title>
      </cc:Work>
    </rdf:RDF>
  </metadata>
  <g
     inkscape:label="Layer 1"
     inkscape:groupmode="layer"
     id="layer1"
     transform="translate(0,-260.48752)">
    <flowRoot
       xml:space="preserve"
       id="flowRoot815"
       style="fill:black;stroke:none;stroke-opacity:1;stroke-width:1px;stroke-linejoin:miter;stroke-linecap:butt;fill-opacity:1;font-family:sans-serif;font-style:normal;font-weight:normal;font-size:40px;line-height:25px;letter-spacing:0px;word-spacing:0px;text-anchor:middle;text-align:center"><flowRegion
         id="flowRegion817"><rect
           id="rect819"
           width="342.94678"
           height="75.761444"
           x="20.708128"
           y="36.479668" /></flowRegion><flowPara
         id="flowPara821"></flowPara></flowRoot>    <g
       aria-label="St  ple"
       transform="matrix(0.26458333,0,0,0.26458333,0.78443727,267.39666)"
       style="font-style:normal;font-weight:normal;font-size:40px;line-height:25px;font-family:sans-serif;text-align:center;letter-spacing:0px;word-spacing:0px;text-anchor:middle;fill:#000000;fill-opacity:1;stroke:none;stroke-width:1px;stroke-linecap:butt;stroke-linejoin:miter;stroke-opacity:1"
       id="flowRoot823">
      <path
         d="m 17.439246,14.076245 q 0,-7.8000006 6.360001,-13.56000094 6.36,-5.76000036 17.280001,-5.76000036 11.040001,0 18.480001,5.88000037 7.56,5.76000033 8.04,17.28000093 0,0.96 -0.72,1.8 -0.72,0.72 -1.68,0.72 h -1.2 q -0.84,0 -1.56,-0.6 -0.72,-0.72 -0.84,-1.68 -0.36,-9.1200004 -6.12,-13.2000007 -5.760001,-4.20000023 -13.800001,-4.20000023 -8.640001,0 -13.440001,3.96000023 -4.8,3.9600003 -4.8,9.8400007 0,5.76 3.36,9.240001 4.68,4.68 17.400001,9.6 15.120001,6.000001 20.160001,12.000001 3.840001,4.56 3.840001,13.080001 0,8.52 -6.960001,14.640001 -6.84,6 -19.560001,6 -9.480001,0 -17.880001,-5.16 -4.440001,-2.76 -7.320001,-7.680001 -2.76,-5.04 -3,-11.52 0,-2.520001 2.4,-2.520001 h 1.08 q 2.16,0 2.4,2.28 0.24,5.280001 2.640001,9.240001 2.4,3.84 6,5.76 6.96,3.720001 15.240001,3.720001 8.4,0 13.680001,-4.320001 5.4,-4.44 5.4,-11.04 0,-6.720001 -4.32,-10.320001 -3.48,-2.88 -7.560001,-4.92 -5.28,-2.52 -16.560001,-7.080001 -8.64,-3.84 -12.6,-8.76 -3.840001,-5.040001 -3.840001,-12.720001 z"
         style="font-style:normal;font-variant:normal;font-weight:normal;font-stretch:normal;font-size:120.00000763px;font-family:'Text Me One';-inkscape-font-specification:'Text Me One'"
         id="path923" />
      <path
         d="m 87.596129,-8.6037565 h 0.96 q 2.28,0 2.28,2.2800001 l -0.36,66.8400044 q 0.12,6.12 3.360001,9.48 3.36,3.360001 8.76,3.360001 h 3 q 0.96,0 1.56,0.72 0.72,0.72 0.72,1.56 v 0.96 q 0,2.4 -5.4,2.4 -7.92,0 -12.720001,-4.8 -4.8,-4.920001 -4.92,-13.560001 l 0.36,-66.9600044 q 0.24,-2.2800001 2.4,-2.2800001 z m -9.24,27.6000015 h 2.88 q 1.08,0 1.68,0.72 0.72,0.72 0.72,1.68 v 0.72 q 0,0.96 -0.72,1.680001 -0.6,0.72 -1.68,0.72 h -2.88 q -1.080001,0 -1.800001,-0.72 -0.6,-0.720001 -0.6,-1.680001 v -0.72 q 0,-0.96 0.6,-1.68 0.72,-0.72 1.800001,-0.72 z m 16.080001,0 h 8.88 q 0.96,0 1.56,0.72 0.72,0.72 0.72,1.68 v 0.72 q 0,0.96 -0.72,1.680001 -0.6,0.72 -1.56,0.72 h -8.88 q -0.96,0 -1.680001,-0.72 -0.72,-0.720001 -0.72,-1.680001 v -0.72 q 0,-0.96 0.72,-1.68 0.720001,-0.72 1.680001,-0.72 z"
         style="font-style:normal;font-variant:normal;font-weight:normal;font-stretch:normal;font-size:120.00000763px;font-family:'Text Me One';-inkscape-font-specification:'Text Me One'"
         id="path925" />
      <path
         d="m 241.30864,38.556246 q 0,-9.36 5.64,-14.52 5.76,-5.280001 14.88,-5.280001 9.24,0 15,5.160001 5.76,5.16 5.76,14.64 v 20.880002 q 0,9.24 -5.76,14.520001 -5.76,5.28 -15,5.28 -9.12,0 -14.88,-4.92 v 32.400001 q 0,2.28 -2.28,2.28 h -1.08 q -2.28,0 -2.28,-2.28 z m 31.32,-10.44 q -4.2,-3.6 -10.68,-3.6 -6.48,0 -10.8,3.72 -4.2,3.6 -4.2,10.44 v 29.160002 q 7.32,5.640001 14.4,5.640001 7.08,0 11.28,-3.720001 4.32,-3.72 4.32,-10.56 V 38.676246 q 0,-6.96 -4.32,-10.56 z"
         style="font-style:normal;font-variant:normal;font-weight:normal;font-stretch:normal;font-size:120.00000763px;font-family:'Text Me One';-inkscape-font-specification:'Text Me One'"
         id="path927" />
      <path
         d="m 306.32053,-8.6037565 h 0.96 q 2.28,0 2.28,2.2800001 V 60.516248 q 0,12.840001 10.92,12.840001 h 1.92 q 0.96,0 1.56,0.72 0.72,0.72 0.72,1.56 v 0.96 q 0,2.4 -4.32,2.4 -8.16,0 -12.36,-4.68 -4.2,-4.680001 -4.08,-13.680001 V -6.3237564 q 0,-2.2800001 2.4,-2.2800001 z"
         style="font-style:normal;font-variant:normal;font-weight:normal;font-stretch:normal;font-size:120.00000763px;font-family:'Text Me One';-inkscape-font-specification:'Text Me One'"
         id="path929" />
      <path
         d="m 339.31115,38.556246 q 0,-9.48 5.76,-14.64 5.76,-5.160001 15,-5.160001 9.24,0 14.88,5.280001 5.64,5.16 5.64,14.52 v 7.200001 q 0,5.16 -4.92,5.16 h -25.92 q -1.08,0 -1.8,-0.72 -0.6,-0.72 -0.6,-1.68 v -0.96 q 0,-0.96 0.6,-1.68 0.72,-0.72 1.8,-0.72 h 25.2 v -6.480001 q 0,-6.84 -4.2,-10.44 -4.2,-3.72 -10.68,-3.72 -6.48,0 -10.8,3.72 -4.2,3.6 -4.2,10.44 v 20.640002 q 0,6.84 4.2,10.56 4.32,3.600001 10.68,3.600001 6.48,0 10.68,-3.480001 4.32,-3.6 4.32,-10.2 0,-0.96 0.6,-1.68 0.72,-0.72 1.68,-0.72 h 0.96 q 1.08,0 1.68,0.72 0.72,0.72 0.72,1.68 -0.12,9.24 -5.76,14.400001 -5.64,5.04 -14.76,5.04 -9.12,0 -15,-5.16 -5.76,-5.280001 -5.76,-14.640001 z"
         style="font-style:normal;font-variant:normal;font-weight:normal;font-stretch:normal;font-size:120.00000763px;font-family:'Text Me One';-inkscape-font-specification:'Text Me One'"
         id="path931" />
    </g>
    <path
       style="opacity:1;fill:#161616;fill-opacity:1;stroke:none;stroke-width:6.75172138;stroke-linecap:square;stroke-linejoin:round;stroke-miterlimit:4.30000019;stroke-dasharray:none;stroke-opacity:1;paint-order:markers stroke fill"
       d="m 35.637013,269.81277 c -0.827694,-0.1405 -1.493877,0.44759 -1.493877,1.31885 v 22.24391 l 1.013408,0.17206 v -21.9324 c 0,-0.48362 0.370036,-0.81029 0.829475,-0.73229 l 12.192724,2.0702 c 0.459439,0.0779 0.829475,0.53035 0.829475,1.01398 v 21.93238 l 1.013407,0.17206 V 273.8276 c 0,-0.87125 -0.666182,-1.6856 -1.493877,-1.82613 z"
       id="rect831"
       inkscape:connector-curvature="0" />
    <path
       style="opacity:1;fill:#161616;fill-opacity:1;stroke:none;stroke-width:6.75172138;stroke-linecap:square;stroke-linejoin:round;stroke-miterlimit:4.30000019;stroke-dasharray:none;stroke-opacity:1;paint-order:markers stroke fill"
       d="m 39.920704,267.92466 c -0.827694,-0.1405 -1.493877,0.4476 -1.493877,1.31885 v 22.24392 l 1.013408,0.17205 v -21.93239 c 0,-0.48362 0.370035,-0.81029 0.829475,-0.73228 l 12.192723,2.0702 c 0.459441,0.0779 0.829476,0.53035 0.829476,1.01396 v 21.93239 l 1.013407,0.17206 V 271.9395 c 0,-0.87126 -0.666184,-1.6856 -1.493877,-1.82614 z"
       id="rect831-5"
       inkscape:connector-curvature="0" />
    <path
       style="opacity:1;fill:#161616;fill-opacity:1;stroke:none;stroke-width:6.75172138;stroke-linecap:square;stroke-linejoin:round;stroke-miterlimit:4.30000019;stroke-dasharray:none;stroke-opacity:1;paint-order:markers stroke fill"
       d="m 44.204396,266.03657 c -0.827695,-0.14049 -1.493877,0.4476 -1.493877,1.31885 v 22.24392 l 1.013407,0.17206 v -21.93241 c 0,-0.48361 0.370036,-0.81028 0.829475,-0.73227 l 12.192724,2.0702 c 0.459442,0.0779 0.829476,0.53034 0.829476,1.01396 v 21.93239 l 1.013407,0.17205 v -22.2439 c 0,-0.87126 -0.666183,-1.6856 -1.493877,-1.82614 z"
       id="rect831-3"
       inkscape:connector-curvature="0" />
  </g>
</svg>
